<svg version="1.1" id="Layer_1" xmlns="http://www.w3.org/2000/svg" xmlns:xlink="http://www.w3.org/1999/xlink" x="0px" y="0px"
	 width="100%" viewBox="0 0 2560 1707" enable-background="new 0 0 2560 1707" xml:space="preserve">
<path fill="#FFFF00" opacity="1.000000" stroke="none" 
	d="
M856.000000,1710.000000 
	C571.403809,1710.000000 286.807556,1710.000000 2.105673,1710.000000 
	C2.105673,1140.878052 2.105673,571.756042 2.105673,2.000000 
	C286.051331,2.000000 570.103149,2.000000 855.278076,2.907269 
	C856.422974,6.146612 856.463989,8.478686 856.463989,10.810760 
	C856.466797,573.890259 856.467651,1136.969727 856.447571,1700.049194 
	C856.447449,1703.366089 856.155640,1706.683105 856.000000,1710.000000 
z"/>
<path fill="#3399FF" opacity="1.000000" stroke="none" 
	d="
M856.925293,1710.000000 
	C856.155640,1706.683105 856.447449,1703.366089 856.447571,1700.049194 
	C856.467651,1136.969727 856.466797,573.890259 856.463989,10.810760 
	C856.463989,8.478686 856.422974,6.146612 856.200562,2.907269 
	C1140.049805,2.000000 1424.099609,2.000000 1709.062012,2.522551 
	C1710.105835,3.367953 1710.236938,3.690804 1710.234131,4.923353 
	C1710.083496,10.164133 1710.052734,14.495214 1710.052612,18.826296 
	C1710.050537,577.553894 1710.050903,1136.281494 1710.048584,1695.009033 
	C1710.048584,1700.005981 1710.016846,1705.003052 1710.000000,1710.000000 
	C1425.950195,1710.000000 1141.900391,1710.000000 856.925293,1710.000000 
z"/>
<path fill="#DA251D" opacity="1.000000" stroke="none" 
	d="
M1710.919434,1710.000000 
	C1710.016846,1705.003052 1710.048584,1700.005981 1710.048584,1695.009033 
	C1710.050903,1136.281494 1710.050537,577.553894 1710.052612,18.826296 
	C1710.052734,14.495214 1710.083496,10.164133 1710.590576,4.663790 
	C1711.491821,3.060617 1711.798218,2.562441 1712.000000,2.000000 
	C1995.263550,2.000000 2278.527100,2.000000 2561.895508,2.000000 
	C2561.895508,571.123535 2561.895508,1140.247070 2561.895508,1710.000000 
	C2278.613281,1710.000000 1995.226074,1710.000000 1710.919434,1710.000000 
z"/>
<path fill="#C2363E" opacity="1.000000" stroke="none" 
	d="
M1711.500000,2.000000 
	C1711.798218,2.562441 1711.491821,3.060617 1710.724609,3.754091 
	C1710.236938,3.690804 1710.105835,3.367953 1709.987305,2.522551 
	C1710.000000,2.000000 1711.000000,2.000000 1711.500000,2.000000 
z"/>
</svg>